<svg xmlns="http://www.w3.org/2000/svg" viewBox="0 0 500 300" width="500" height="300">
  <rect width="500" height="300" fill="#f8f9ff" rx="8"/>
  <rect x="20" y="20" width="460" height="40" fill="#7f05ff" rx="4"/>
  <text x="250" y="45" text-anchor="middle" fill="white" font-family="Arial, sans-serif" font-size="16" font-weight="bold">Recruitment Analytics Dashboard</text>
  <rect x="20" y="80" width="150" height="100" fill="#fff" rx="4" stroke="#ddd"/>
  <text x="95" y="105" text-anchor="middle" fill="#333" font-family="Arial, sans-serif" font-size="12" font-weight="bold">Time to Hire</text>
  <text x="95" y="135" text-anchor="middle" fill="#0069ff" font-family="Arial, sans-serif" font-size="24" font-weight="bold">12 days</text>
  <rect x="190" y="80" width="150" height="100" fill="#fff" rx="4" stroke="#ddd"/>
  <text x="265" y="105" text-anchor="middle" fill="#333" font-family="Arial, sans-serif" font-size="12" font-weight="bold">Quality of Hire</text>
  <text x="265" y="135" text-anchor="middle" fill="#0069ff" font-family="Arial, sans-serif" font-size="24" font-weight="bold">95%</text>
  <rect x="360" y="80" width="120" height="100" fill="#fff" rx="4" stroke="#ddd"/>
  <text x="420" y="105" text-anchor="middle" fill="#333" font-family="Arial, sans-serif" font-size="12" font-weight="bold">Source Effectiveness</text>
  <text x="420" y="135" text-anchor="middle" fill="#0069ff" font-family="Arial, sans-serif" font-size="24" font-weight="bold">78%</text>
  <rect x="20" y="200" width="460" height="80" fill="#fff" rx="4" stroke="#ddd"/>
  <text x="250" y="225" text-anchor="middle" fill="#333" font-family="Arial, sans-serif" font-size="14" font-weight="bold">Hiring Funnel</text>
  <rect x="40" y="240" width="80" height="20" fill="#0069ff"/>
  <text x="80" y="255" text-anchor="middle" fill="white" font-family="Arial, sans-serif" font-size="10">Applications</text>
  <rect x="140" y="250" width="60" height="20" fill="#7f05ff"/>
  <text x="170" y="255" text-anchor="middle" fill="white" font-family="Arial, sans-serif" font-size="10">Screened</text>
  <rect x="220" y="250" width="40" height="20" fill="#0069ff"/>
  <text x="240" y="255" text-anchor="middle" fill="white" font-family="Arial, sans-serif" font-size="10">Interviews</text>
  <rect x="280" y="250" width="20" height="20" fill="#7f05ff"/>
  <text x="290" y="255" text-anchor="middle" fill="white" font-family="Arial, sans-serif" font-size="10">Offers</text>
</svg>